<svg width="100" height="59" viewBox="0 0 100 59" fill="none" xmlns="http://www.w3.org/2000/svg">
<path d="M27.0833 50.1667H18.75C17.6 50.1667 16.6666 49.2333 16.6666 48.0833C16.6666 46.9333 17.6 46 18.75 46H27.0833C28.2333 46 29.1666 46.9333 29.1666 48.0833C29.1666 49.2333 28.2333 50.1667 27.0833 50.1667Z" fill="white"/>
<path d="M94.7916 50.167H89.5833C88.4333 50.167 87.5 49.2337 87.5 48.0837C87.5 46.9337 88.4333 46.0003 89.5833 46.0003H93.0625L95.8708 31.0337C95.8333 23.3753 89.2916 16.8337 81.25 16.8337H67.5708L60.9416 46.0003H72.9166C74.0666 46.0003 75 46.9337 75 48.0837C75 49.2337 74.0666 50.167 72.9166 50.167H58.3333C57.7 50.167 57.1 49.8795 56.7041 49.3837C56.3083 48.892 56.1583 48.242 56.3 47.6253L63.875 14.292C64.0916 13.3378 64.9333 12.667 65.9083 12.667H81.25C91.5875 12.667 100 21.0795 100 31.417L96.8375 48.467C96.6541 49.4545 95.7958 50.167 94.7916 50.167Z" fill="white"/>
<path d="M81.2501 58.5003C75.5085 58.5003 70.8335 53.8295 70.8335 48.0836C70.8335 42.3378 75.5085 37.667 81.2501 37.667C86.9918 37.667 91.6668 42.3378 91.6668 48.0836C91.6668 53.8295 86.9918 58.5003 81.2501 58.5003ZM81.2501 41.8337C77.8043 41.8337 75.0002 44.6378 75.0002 48.0836C75.0002 51.5295 77.8043 54.3336 81.2501 54.3336C84.696 54.3336 87.5001 51.5295 87.5001 48.0836C87.5001 44.6378 84.696 41.8337 81.2501 41.8337Z" fill="white"/>
<path d="M35.4167 58.5003C29.675 58.5003 25 53.8295 25 48.0836C25 42.3378 29.675 37.667 35.4167 37.667C41.1583 37.667 45.8333 42.3378 45.8333 48.0836C45.8333 53.8295 41.1583 58.5003 35.4167 58.5003ZM35.4167 41.8337C31.9708 41.8337 29.1667 44.6378 29.1667 48.0836C29.1667 51.5295 31.9708 54.3336 35.4167 54.3336C38.8625 54.3336 41.6667 51.5295 41.6667 48.0836C41.6667 44.6378 38.8625 41.8337 35.4167 41.8337Z" fill="white"/>
<path d="M27.0835 12.6667H10.4168C9.26683 12.6667 8.3335 11.7333 8.3335 10.5833C8.3335 9.43333 9.26683 8.5 10.4168 8.5H27.0835C28.2335 8.5 29.1668 9.43333 29.1668 10.5833C29.1668 11.7333 28.2335 12.6667 27.0835 12.6667Z" fill="white"/>
<path d="M27.0833 25.1666H6.24996C5.09996 25.1666 4.16663 24.2333 4.16663 23.0833C4.16663 21.9333 5.09996 21 6.24996 21H27.0833C28.2333 21 29.1666 21.9333 29.1666 23.0833C29.1666 24.2333 28.2333 25.1666 27.0833 25.1666Z" fill="white"/>
<path d="M27.0833 37.6667H2.08333C0.933333 37.6667 0 36.7333 0 35.5833C0 34.4333 0.933333 33.5 2.08333 33.5H27.0833C28.2333 33.5 29.1667 34.4333 29.1667 35.5833C29.1667 36.7333 28.2333 37.6667 27.0833 37.6667Z" fill="white"/>
<path d="M58.3333 50.167H43.75C42.6 50.167 41.6666 49.2337 41.6666 48.0837C41.6666 46.9337 42.6 46.0003 43.75 46.0003H56.6708L66.1375 4.33366H18.75C17.6 4.33366 16.6666 3.40033 16.6666 2.25033C16.6666 1.10033 17.6 0.166992 18.75 0.166992H68.75C69.3833 0.166992 69.9833 0.454493 70.3791 0.950326C70.775 1.44199 70.925 2.09199 70.7833 2.70866L60.3666 48.542C60.15 49.4962 59.3041 50.167 58.3333 50.167Z" fill="white"/>
</svg>
