<svg width="80" height="80" viewBox="0 0 80 80" fill="none" xmlns="http://www.w3.org/2000/svg">
<path d="M78.6667 0.744141H1.33333C0.597 0.744141 0 1.34114 0 2.07747V55.4108C0 56.1471 0.597 56.7441 1.33333 56.7441H25.4093C25.4493 57.1881 25.5147 57.6255 25.5933 58.0588L18.28 66.7748C17.8063 67.3386 17.8795 68.1796 18.4433 68.6533C18.6022 68.7868 18.7902 68.8813 18.992 68.9295L27.0427 70.8521L30.3347 78.4521C30.6273 79.1278 31.4123 79.4385 32.088 79.1458C32.2783 79.0635 32.4467 78.9378 32.58 78.7788L39.8813 70.0775C39.9213 70.0775 39.96 70.0775 40 70.0775C40.04 70.0775 40.0787 70.0775 40.1187 70.0775L47.42 78.7788C47.893 79.3431 48.734 79.4171 49.2983 78.9441C49.4572 78.811 49.5828 78.6425 49.6653 78.4521L52.9573 70.8521L61.008 68.9295C61.7243 68.7588 62.1668 68.0398 61.9962 67.3235C61.948 67.1216 61.8535 66.9336 61.72 66.7748L54.4067 58.0588C54.4853 57.6255 54.5507 57.1881 54.5907 56.7441H78.6667C79.403 56.7441 80 56.1471 80 55.4108V2.07747C80 1.34097 79.403 0.744141 78.6667 0.744141ZM31.924 75.4108L29.224 69.1841C29.0572 68.7991 28.7188 68.5151 28.3107 68.4175L21.7107 66.8401L26.4973 61.1348C26.5227 61.1935 26.556 61.2468 26.5813 61.3055C26.7547 61.7055 26.9427 62.0855 27.1507 62.4628C27.236 62.6201 27.3267 62.7748 27.4173 62.9281C27.6005 63.233 27.7942 63.5316 27.9987 63.8241C28.1413 64.0281 28.2907 64.2241 28.444 64.4241C28.6227 64.6508 28.8067 64.8721 29 65.0908C29.1933 65.3095 29.4187 65.5508 29.6413 65.7721C29.8053 65.9361 29.9747 66.0948 30.148 66.2508C30.292 66.3841 30.4213 66.5241 30.572 66.6508C30.7227 66.7775 30.864 66.8628 31.008 66.9748C31.0733 67.0255 31.1293 67.0841 31.196 67.1335C31.316 67.2241 31.4427 67.3028 31.5653 67.3895C31.7573 67.5228 31.9467 67.6668 32.1453 67.7895C32.524 68.0321 32.9147 68.2535 33.3107 68.4561C33.4627 68.5335 33.6173 68.6041 33.772 68.6761C34.1275 68.8433 34.4853 68.9953 34.8453 69.1321C34.9493 69.1708 35.052 69.2148 35.156 69.2508C35.661 69.4283 36.1757 69.5775 36.6973 69.6975L36.712 69.7015L31.924 75.4108ZM42.504 67.1281C41.8925 67.2573 41.272 67.339 40.648 67.3721H40.6307C40.42 67.3828 40.2093 67.3975 39.9973 67.3975C39.7853 67.3975 39.5747 67.3828 39.364 67.3721H39.3467C38.724 67.3388 38.1048 67.2576 37.4947 67.1295L37.3827 67.1068C37.1453 67.0548 36.9107 66.9908 36.6787 66.9241C36.5813 66.8961 36.4827 66.8708 36.3867 66.8401C36.22 66.7881 36.056 66.7268 35.892 66.6681C35.728 66.6095 35.572 66.5521 35.4147 66.4868C35.3173 66.4455 35.2213 66.4015 35.1253 66.3535C34.9067 66.2548 34.6893 66.1548 34.4773 66.0441L34.3707 65.9855C33.821 65.6915 33.295 65.3553 32.7973 64.9801C32.52 64.7735 32.264 64.5455 32.012 64.3201C31.714 64.0543 31.4295 63.7735 31.16 63.4788C31.0533 63.3641 30.9387 63.2548 30.8373 63.1361C30.465 62.6981 30.1253 62.2333 29.8213 61.7455C29.776 61.6735 29.7373 61.5975 29.688 61.5228C29.4045 61.0491 29.155 60.5558 28.9413 60.0468C28.9227 60.0015 28.9013 59.9561 28.884 59.9135C28.6478 59.3301 28.4578 58.7293 28.316 58.1161C28.316 58.0921 28.2973 58.0735 28.2907 58.0495C28.097 57.1833 27.9995 56.2983 28 55.4108C27.996 48.7833 33.3653 43.4076 39.9927 43.4035C46.6202 43.3995 51.9958 48.7688 52 55.3961C52.0005 56.2938 51.9003 57.1886 51.7013 58.064C51.6947 58.0866 51.6813 58.1066 51.676 58.1293C51.5343 58.7418 51.3448 59.3423 51.1093 59.9253C51.0907 59.972 51.0693 60.0186 51.0493 60.0586C50.8363 60.5645 50.5877 61.0546 50.3053 61.5253C50.2613 61.6 50.2213 61.6786 50.172 61.7533C49.868 62.2405 49.5288 62.7048 49.1573 63.1426C49.0573 63.26 48.944 63.3666 48.8387 63.4813C48.5655 63.7786 48.2775 64.0621 47.976 64.3306C47.7227 64.556 47.4707 64.784 47.1947 64.9893C46.9187 65.1946 46.672 65.368 46.4027 65.54L46.3867 65.5493C46.1453 65.7026 45.8987 65.844 45.648 65.9773C45.5987 66.004 45.5507 66.032 45.5013 66.0573C45.3 66.1626 45.1013 66.2573 44.8893 66.3493C44.7827 66.3973 44.6773 66.4466 44.5693 66.4906C44.42 66.5533 44.268 66.608 44.116 66.6626C43.964 66.7173 43.776 66.788 43.6027 66.8413C43.5107 66.8706 43.4173 66.896 43.324 66.9226C43.088 66.9893 42.8507 67.056 42.6107 67.1066L42.504 67.1281ZM58.2893 66.8361L51.6893 68.4135C51.2812 68.5111 50.9428 68.7951 50.776 69.1801L48.076 75.4108L43.288 69.7055H43.3C43.8237 69.5858 44.3402 69.4363 44.8467 69.2575C44.9467 69.2228 45.0427 69.1815 45.1427 69.1455C45.5147 69.0041 45.8813 68.8495 46.2413 68.6775C46.388 68.6095 46.5347 68.5441 46.6787 68.4695C47.0787 68.2615 47.4787 68.0361 47.8627 67.7895C48.048 67.6721 48.2253 67.5401 48.4053 67.4135C48.5387 67.3215 48.672 67.2375 48.8053 67.1401C48.876 67.0868 48.9387 67.0241 49.008 66.9695C49.1413 66.8601 49.296 66.7681 49.432 66.6535C49.568 66.5388 49.7067 66.3868 49.848 66.2615C50.024 66.1015 50.1973 65.9401 50.3653 65.7735C50.5848 65.554 50.7973 65.3281 51.0027 65.0961C51.196 64.8775 51.38 64.6561 51.56 64.4295C51.7133 64.2335 51.8627 64.0295 52.0053 63.8295C52.2107 63.5388 52.4053 63.2401 52.5853 62.9361C52.6787 62.7815 52.7693 62.6255 52.852 62.4668C53.0592 62.0908 53.248 61.7063 53.4187 61.3135C53.4427 61.2455 53.4773 61.1908 53.5027 61.1308L58.2893 66.8361ZM77.3333 54.0775H54.5987C53.8752 46.0141 46.7518 40.064 38.6885 40.7876C31.6278 41.4213 26.0323 47.0168 25.3987 54.0775H2.66667V3.41081H77.3333V54.0775Z" fill="white"/>
<path d="M6.66666 6.07764C5.93033 6.07764 5.33333 6.67464 5.33333 7.41097V12.7443H7.99999V8.7443H12V6.07764H6.66666Z" fill="white"/>
<path d="M73.3333 6.07764H68V8.7443H72V12.7443H74.6667V7.41097C74.6667 6.67447 74.0697 6.07764 73.3333 6.07764Z" fill="white"/>
<path d="M72 44.7441V48.7441H68V51.4108H73.3333C74.0697 51.4108 74.6667 50.8138 74.6667 50.0775V44.7441H72Z" fill="white"/>
<path d="M7.99999 48.7441V44.7441H5.33333V50.0775C5.33333 50.8138 5.93033 51.4108 6.66666 51.4108H12V48.7441H7.99999Z" fill="white"/>
<path d="M56 15.4109H24V18.0776H56V15.4109Z" fill="white"/>
<path d="M64 23.4109H16V26.0776H64V23.4109Z" fill="white"/>
<path d="M40 46.0776C34.8453 46.0776 30.6667 50.2563 30.6667 55.411C30.6725 60.5631 34.8478 64.7385 40 64.7443C45.1547 64.7443 49.3333 60.5656 49.3333 55.411C49.3333 50.2563 45.1547 46.0776 40 46.0776ZM40 62.0776C36.3182 62.0776 33.3333 59.0928 33.3333 55.411C33.3377 51.731 36.32 48.7486 40 48.7443C43.6818 48.7443 46.6667 51.7291 46.6667 55.411C46.6667 59.0928 43.6818 62.0776 40 62.0776Z" fill="white"/>
</svg>
