<svg width="82" height="57" viewBox="0 0 82 57" fill="none" xmlns="http://www.w3.org/2000/svg">
<g clip-path="url(#clip0)">
<path d="M10.5806 32.0373V36.0575H0L0 49.4583H10.5806V53.4785H15.871V56.1587H29.0968V53.4785H31.9681C32.5143 55.0384 33.985 56.1587 35.7097 56.1587H54.2258C55.9505 56.1587 57.4212 55.0384 57.9674 53.4785L66.129 53.4785V50.7984H74.0645V48.1182H82V37.3976H74.0645V34.7175H66.129V32.0373H57.9674C57.4212 30.4775 55.9505 29.3572 54.2258 29.3572H35.7097C33.985 29.3572 32.5143 30.4775 31.9681 32.0373H29.0968V29.3572L15.871 29.3572V32.0373H10.5806ZM2.64516 46.7782L2.64516 38.7377H5.29032V46.7782H2.64516ZM79.3548 40.0778V45.4381H74.0645V40.0778H79.3548ZM71.4194 37.3976V48.1182H66.129V37.3976H71.4194ZM54.2258 32.0373C54.9559 32.0373 55.5484 32.6377 55.5484 33.3774V34.7175H63.4839V50.7984H55.5484V52.1385C55.5484 52.8782 54.9559 53.4785 54.2258 53.4785H50.2581V32.0373H54.2258ZM42.3226 32.0373V34.7175H44.9677V32.0373H47.6129V53.4785H44.9677V37.3976H42.3226V53.4785H39.6774V32.0373H42.3226ZM26.4516 32.0373V34.7175H34.3871V33.3774C34.3871 32.6377 34.9796 32.0373 35.7097 32.0373H37.0323V53.4785H35.7097C34.9796 53.4785 34.3871 52.8782 34.3871 52.1385V50.7984H26.4516V53.4785H18.5161V50.7984H13.2258V46.7782H7.93548V38.7377H13.2258V34.7175H18.5161V32.0373H26.4516Z" fill="white"/>
<path d="M26.4518 48.1182V37.3975H18.5163V48.1182H26.4518ZM21.1614 45.438V40.0777H23.8066V45.438H21.1614Z" fill="white"/>
<path d="M18.5161 2.55558H13.2258V5.23574H0L0 15.9563H13.2258V18.6365H18.5161V21.3167H28.5915L29.9141 18.6365L64.8065 18.6365C66.5285 18.6365 67.9833 17.5122 68.5308 15.9563L82 15.9563V5.23574H68.5308C67.9833 3.67991 66.5285 2.55558 64.8065 2.55558H29.9141L28.5915 -0.124569H18.5161V2.55558ZM2.64516 13.2762L2.64516 7.91589H13.2258V13.2762H2.64516ZM15.871 15.9563L15.871 5.23574H18.5161V15.9563H15.871ZM79.3548 7.91589V13.2762L68.7742 13.2762V7.91589L79.3548 7.91589ZM64.8065 5.23574C65.5365 5.23574 66.129 5.83609 66.129 6.57581V14.6163C66.129 15.356 65.5365 15.9563 64.8065 15.9563H47.6129V5.23574H64.8065ZM39.6774 5.23574V7.91589H42.3226V5.23574H44.9677V15.9563H42.3226V10.596H39.6774V15.9563H37.0323V5.23574H39.6774ZM26.9568 2.55558L28.2794 5.23574L34.3871 5.23574V15.9563H28.2794L26.9568 18.6365H21.1613V2.55558H26.9568Z" fill="white"/>
</g>
<defs>
<clipPath id="clip0">
<rect width="57" height="82" fill="white" transform="translate(0 57) rotate(-90)"/>
</clipPath>
</defs>
</svg>
