<svg width="82" height="58" viewBox="0 0 82 58" fill="none" xmlns="http://www.w3.org/2000/svg">
<path d="M78.0481 0H3.95186C1.77821 0 0 1.76939 0 3.93209V54.0677C0 56.2304 1.77821 58 3.95186 58H78.0481C80.2216 58 82 56.2306 82 54.0677V3.93209C82 1.76939 80.2218 0 78.0481 0ZM2.96385 3.93209C2.96385 3.39934 3.41629 2.94915 3.9517 2.94915H78.048C78.5834 2.94915 79.0358 3.39934 79.0358 3.93209V8.84728H2.96385V3.93209ZM79.0363 54.0677C79.0361 54.6005 78.5839 55.0507 78.0481 55.0507H3.95186C3.41645 55.0507 2.96401 54.6005 2.96401 54.0677V23.5932H79.0363V54.0677ZM79.0363 20.644H2.96385V11.7966H79.0361V20.644H79.0363Z" fill="white"/>
<path d="M66.6867 33.4456C64.372 33.4456 62.2774 34.3822 60.759 35.8958C59.2396 34.3822 57.1449 33.4456 54.8313 33.4456C50.1929 33.4456 46.4338 37.2057 46.4338 41.843C46.4338 46.4796 50.193 50.2405 54.8313 50.2405C57.1451 50.2405 59.2396 49.3039 60.759 47.7903C62.2776 49.3039 64.372 50.2405 66.6867 50.2405C71.3232 50.2405 75.0842 46.4794 75.0842 41.843C75.0845 37.2057 71.3232 33.4456 66.6867 33.4456ZM66.6867 47.277C65.2394 47.277 63.8771 46.7139 62.8514 45.6913C62.2725 45.1152 61.5157 44.8267 60.759 44.8267C60.0023 44.8267 59.2454 45.1152 58.6674 45.6913C57.6409 46.7139 56.2775 47.277 54.8311 47.277C51.8348 47.277 49.3974 44.8397 49.3974 41.8432C49.3974 38.8467 51.8346 36.4094 54.8311 36.4094C56.2774 36.4094 57.6408 36.9725 58.6674 37.9951C59.2454 38.572 60.0031 38.8596 60.759 38.8596C61.5169 38.8596 62.2726 38.5712 62.8514 37.9951C63.8769 36.9725 65.2394 36.4094 66.6867 36.4094C69.6831 36.4094 72.1205 38.8467 72.1205 41.8432C72.1205 44.8397 69.6832 47.277 66.6867 47.277Z" fill="white"/>
<path d="M32.6024 36.4097H8.89159C8.07352 36.4097 7.40967 37.0737 7.40967 37.8916C7.40967 38.7095 8.07368 39.3735 8.89159 39.3735H32.6024C33.4205 39.3735 34.0843 38.7095 34.0843 37.8916C34.0843 37.0734 33.4205 36.4097 32.6024 36.4097Z" fill="white"/>
<path d="M19.7609 43.3252H8.89159C8.07352 43.3252 7.40967 43.9892 7.40967 44.8071C7.40967 45.625 8.07368 46.2891 8.89159 46.2891H19.7611C20.5792 46.2891 21.243 45.625 21.243 44.8071C21.243 43.9892 20.579 43.3252 19.7609 43.3252Z" fill="white"/>
</svg>
