<svg width="66" height="66" viewBox="0 0 66 66" fill="none" xmlns="http://www.w3.org/2000/svg">
<path d="M64.9 8.8C65.5075 8.8 66 8.30748 66 7.7V1.1C66 0.492525 65.5075 0 64.9 0H1.1C0.492525 0 0 0.492525 0 1.1V7.7C0 8.30748 0.492525 8.8 1.1 8.8H3.3V63.8H1.1C0.492525 63.8 0 64.2925 0 64.9C0 65.5075 0.492525 66 1.1 66H64.9C65.5075 66 66 65.5075 66 64.9C66 64.2925 65.5075 63.8 64.9 63.8H62.7V8.8H64.9ZM56.1 63.8H9.9V57.2H56.1V63.8ZM56.1 55H9.9V48.4H56.1V55ZM56.1 46.2H9.9V39.6H56.1V46.2ZM56.1 37.4H9.9V30.8H56.1V37.4ZM56.1 28.6H9.9V22H56.1V28.6ZM56.1 19.8H9.9V13.2H56.1V19.8ZM60.5 63.8H58.3V12.1C58.3 11.4925 57.8075 11 57.2 11H8.8C8.19252 11 7.7 11.4925 7.7 12.1V63.8H5.5V8.8H60.5V63.8ZM2.2 6.6V2.2H63.8V6.6H2.2Z" fill="#777777"/>
<path d="M29.6996 62.7H36.2996C36.9071 62.7 37.3996 62.2075 37.3996 61.6C37.3996 60.9925 36.9071 60.5 36.2996 60.5H29.6996C29.0921 60.5 28.5996 60.9925 28.5996 61.6C28.5996 62.2075 29.0921 62.7 29.6996 62.7Z" fill="#777777"/>
</svg>
