<svg width="66" height="66" viewBox="0 0 66 66" fill="none" xmlns="http://www.w3.org/2000/svg">
<g clip-path="url(#clip0)">
<path d="M42.625 66H6.875C3.08275 66 0 62.9145 0 59.125V15.125C0 11.3355 3.08275 8.25 6.875 8.25H12.375C13.134 8.25 13.75 8.866 13.75 9.625C13.75 10.384 13.134 11 12.375 11H6.875C4.60075 11 2.75 12.8507 2.75 15.125V59.125C2.75 61.3992 4.60075 63.25 6.875 63.25H42.625C44.8993 63.25 46.75 61.3992 46.75 59.125V15.125C46.75 12.8507 44.8993 11 42.625 11H37.125C36.366 11 35.75 10.384 35.75 9.625C35.75 8.866 36.366 8.25 37.125 8.25H42.625C46.4173 8.25 49.5 11.3355 49.5 15.125V59.125C49.5 62.9145 46.4173 66 42.625 66Z" fill="#777777"/>
<path d="M34.375 16.5H15.125C12.8508 16.5 11 14.6493 11 12.375V6.875C11 6.116 11.616 5.5 12.375 5.5H18.0125C18.6505 2.365 21.4308 0 24.75 0C28.0693 0 30.8495 2.365 31.4875 5.5H37.125C37.884 5.5 38.5 6.116 38.5 6.875V12.375C38.5 14.6493 36.6493 16.5 34.375 16.5ZM13.75 8.25V12.375C13.75 13.134 14.3688 13.75 15.125 13.75H34.375C35.1313 13.75 35.75 13.134 35.75 12.375V8.25H30.25C29.491 8.25 28.875 7.634 28.875 6.875C28.875 4.60075 27.0243 2.75 24.75 2.75C22.4758 2.75 20.625 4.60075 20.625 6.875C20.625 7.634 20.009 8.25 19.25 8.25H13.75Z" fill="#777777"/>
<path d="M60.5 57.75C59.9803 57.75 59.5045 57.4558 59.2708 56.991L55.726 49.9015C55.2503 48.95 55 47.8885 55 46.827V22C55 18.9667 57.4668 16.5 60.5 16.5C63.5333 16.5 66 18.9667 66 22V46.827C66 47.8885 65.7498 48.95 65.274 49.9015L61.7293 56.991C61.4955 57.4558 61.0198 57.75 60.5 57.75ZM60.5 19.25C58.982 19.25 57.75 20.4848 57.75 22V46.827C57.75 47.4622 57.9013 48.103 58.1845 48.6722L60.5 53.3005L62.8155 48.6722C63.0988 48.103 63.25 47.4622 63.25 46.827V22C63.25 20.4848 62.018 19.25 60.5 19.25ZM64.0448 49.2855H64.0723H64.0448Z" fill="#777777"/>
<path d="M39.875 27.5H9.625C8.866 27.5 8.25 26.884 8.25 26.125C8.25 25.366 8.866 24.75 9.625 24.75H39.875C40.634 24.75 41.25 25.366 41.25 26.125C41.25 26.884 40.634 27.5 39.875 27.5Z" fill="#777777"/>
<path d="M39.875 35.75H9.625C8.866 35.75 8.25 35.134 8.25 34.375C8.25 33.616 8.866 33 9.625 33H39.875C40.634 33 41.25 33.616 41.25 34.375C41.25 35.134 40.634 35.75 39.875 35.75Z" fill="#777777"/>
<path d="M39.875 44H9.625C8.866 44 8.25 43.384 8.25 42.625C8.25 41.866 8.866 41.25 9.625 41.25H39.875C40.634 41.25 41.25 41.866 41.25 42.625C41.25 43.384 40.634 44 39.875 44Z" fill="#777777"/>
<path d="M39.875 52.25H9.625C8.866 52.25 8.25 51.634 8.25 50.875C8.25 50.116 8.866 49.5 9.625 49.5H39.875C40.634 49.5 41.25 50.116 41.25 50.875C41.25 51.634 40.634 52.25 39.875 52.25Z" fill="#777777"/>
</g>
<defs>
<clipPath id="clip0">
<rect width="66" height="66" fill="white"/>
</clipPath>
</defs>
</svg>
