<svg width="68" height="66" viewBox="0 0 68 66" fill="none" xmlns="http://www.w3.org/2000/svg">
<path d="M11.4863 18.4662H45.7733C45.9847 18.4662 46.1874 18.3847 46.3368 18.2397C46.4863 18.0946 46.5702 17.8979 46.5702 17.6928C46.5702 17.4876 46.4863 17.2909 46.3368 17.1459C46.1874 17.0008 45.9847 16.9193 45.7733 16.9193H11.4863C11.275 16.9193 11.0723 17.0008 10.9229 17.1459C10.7734 17.2909 10.6895 17.4876 10.6895 17.6928C10.6895 17.8979 10.7734 18.0946 10.9229 18.2397C11.0723 18.3847 11.275 18.4662 11.4863 18.4662Z" fill="#777777"/>
<path d="M45.774 24.8609H22.3965C22.1851 24.8609 21.9825 24.9423 21.833 25.0874C21.6836 25.2324 21.5996 25.4292 21.5996 25.6343C21.5996 25.8394 21.6836 26.0361 21.833 26.1812C21.9825 26.3262 22.1851 26.4077 22.3965 26.4077H45.774C45.9854 26.4077 46.188 26.3262 46.3375 26.1812C46.4869 26.0361 46.5709 25.8394 46.5709 25.6343C46.5709 25.4292 46.4869 25.2324 46.3375 25.0874C46.188 24.9423 45.9854 24.8609 45.774 24.8609Z" fill="#777777"/>
<path d="M33.9294 32.8024H22.3965C22.1851 32.8024 21.9825 32.8839 21.833 33.0289C21.6836 33.174 21.5996 33.3707 21.5996 33.5758C21.5996 33.781 21.6836 33.9777 21.833 34.1227C21.9825 34.2678 22.1851 34.3493 22.3965 34.3493H33.9294C34.1407 34.3493 34.3434 34.2678 34.4929 34.1227C34.6423 33.9777 34.7263 33.781 34.7263 33.5758C34.7263 33.3707 34.6423 33.174 34.4929 33.0289C34.3434 32.8839 34.1407 32.8024 33.9294 32.8024Z" fill="#777777"/>
<path d="M28.3182 40.7438H11.4863C11.275 40.7438 11.0723 40.8253 10.9229 40.9703C10.7734 41.1154 10.6895 41.3121 10.6895 41.5172C10.6895 41.7224 10.7734 41.9191 10.9229 42.0641C11.0723 42.2092 11.275 42.2907 11.4863 42.2907H28.3182C28.5295 42.2907 28.7322 42.2092 28.8817 42.0641C29.0311 41.9191 29.1151 41.7224 29.1151 41.5172C29.1151 41.3121 29.0311 41.1154 28.8817 40.9703C28.7322 40.8253 28.5295 40.7438 28.3182 40.7438Z" fill="#777777"/>
<path d="M28.1623 48.6853H11.4863C11.275 48.6853 11.0723 48.7668 10.9229 48.9118C10.7734 49.0569 10.6895 49.2536 10.6895 49.4587C10.6895 49.6639 10.7734 49.8606 10.9229 50.0057C11.0723 50.1507 11.275 50.2322 11.4863 50.2322H28.1623C28.2669 50.2322 28.3705 50.2122 28.4672 50.1733C28.5639 50.1344 28.6517 50.0775 28.7257 50.0057C28.7997 49.9338 28.8584 49.8486 28.8985 49.7547C28.9385 49.6609 28.9591 49.5603 28.9591 49.4587C28.9591 49.3572 28.9385 49.2566 28.8985 49.1628C28.8584 49.0689 28.7997 48.9837 28.7257 48.9118C28.6517 48.84 28.5639 48.7831 28.4672 48.7442C28.3705 48.7053 28.2669 48.6853 28.1623 48.6853Z" fill="#777777"/>
<path d="M14.4006 34.6122C14.3937 34.6122 14.3874 34.6112 14.38 34.6112C14.3727 34.6112 14.3668 34.612 14.3596 34.6122C13.8073 34.6066 13.2796 34.3899 12.8909 34.0091C12.5022 33.6283 12.2839 33.1141 12.2832 32.5781C12.2832 32.373 12.1992 32.1762 12.0498 32.0312C11.9004 31.8861 11.6977 31.8047 11.4863 31.8047C11.275 31.8047 11.0723 31.8861 10.9229 32.0312C10.7734 32.1762 10.6895 32.373 10.6895 32.5781C10.6906 33.3934 10.9779 34.1839 11.5039 34.8196C12.0299 35.4552 12.7632 35.898 13.5832 36.0751V37.0577C13.5832 37.2628 13.6671 37.4596 13.8166 37.6046C13.966 37.7497 14.1687 37.8311 14.38 37.8311C14.5914 37.8311 14.7941 37.7497 14.9435 37.6046C15.093 37.4596 15.1769 37.2628 15.1769 37.0577V36.0751C16.0649 35.8845 16.8491 35.3825 17.3791 34.6653C17.9091 33.948 18.1476 33.0661 18.0489 32.1887C17.9501 31.3113 17.521 30.5001 16.8439 29.9109C16.1668 29.3217 15.2894 28.9958 14.38 28.9959C13.9653 28.9959 13.5599 28.8765 13.2151 28.6529C12.8703 28.4292 12.6016 28.1114 12.4429 27.7395C12.2842 27.3676 12.2427 26.9584 12.3236 26.5636C12.4046 26.1688 12.6043 25.8062 12.8975 25.5216C13.1908 25.237 13.5644 25.0432 13.9712 24.9647C14.3779 24.8862 14.7995 24.9265 15.1826 25.0805C15.5658 25.2345 15.8933 25.4954 16.1237 25.8301C16.354 26.1648 16.477 26.5582 16.477 26.9607C16.477 27.1659 16.561 27.3626 16.7104 27.5076C16.8599 27.6527 17.0626 27.7342 17.2739 27.7342C17.4852 27.7342 17.6879 27.6527 17.8374 27.5076C17.9868 27.3626 18.0708 27.1659 18.0708 26.9607C18.0696 26.1454 17.7823 25.3549 17.2563 24.7192C16.7303 24.0836 15.9969 23.6408 15.1769 23.4638V22.609C15.1769 22.4039 15.093 22.2071 14.9435 22.0621C14.7941 21.917 14.5914 21.8356 14.38 21.8356C14.1687 21.8356 13.966 21.917 13.8166 22.0621C13.6671 22.2071 13.5832 22.4039 13.5832 22.609V23.4638C12.6953 23.6544 11.9113 24.1565 11.3814 24.8737C10.8515 25.5909 10.6131 26.4727 10.7118 27.35C10.8106 28.2274 11.2396 29.0384 11.9165 29.6276C12.5935 30.2168 13.4708 30.5427 14.38 30.5428C14.9338 30.5435 15.4647 30.7569 15.857 31.1362C16.2492 31.5156 16.4709 32.0301 16.4736 32.5676C16.4763 33.105 16.2599 33.6217 15.8715 34.0048C15.4831 34.3878 14.9543 34.6062 14.4006 34.6122Z" fill="#777777"/>
<path d="M52.8037 33.8826V8.86952C52.8027 7.86234 52.39 6.8967 51.6563 6.1845C50.9225 5.4723 49.9276 5.07171 48.8899 5.07066H38.7082C38.5191 4.01301 37.9518 3.05398 37.106 2.36229C36.2602 1.6706 35.1902 1.29057 34.0842 1.28906H23.1754C22.0688 1.28863 20.9977 1.66795 20.1514 2.35997C19.3051 3.05198 18.7381 4.01212 18.5507 5.07066H8.36893C7.33122 5.07171 6.33633 5.4723 5.60258 6.1845C4.86882 6.8967 4.45613 7.86234 4.45508 8.86952V58.2821C4.45606 59.2894 4.86872 60.2551 5.60248 60.9673C6.33625 61.6796 7.33118 62.0802 8.36893 62.0813H37.9804V61.9726C39.9007 63.2345 42.0752 64.0863 44.36 64.4715C46.6448 64.8568 48.9878 64.7668 51.2341 64.2075C53.4804 63.6481 55.5787 62.6322 57.3902 61.2269C59.2017 59.8216 60.6851 58.059 61.7422 56.0557C62.7994 54.0523 63.4063 51.854 63.5226 49.606C63.639 47.358 63.2622 45.1117 62.4172 43.0156C61.5722 40.9195 60.2783 39.0214 58.6211 37.447C56.9638 35.8726 54.981 34.6577 52.8037 33.8826ZM20.9828 3.71675C21.2701 3.43644 21.6118 3.21424 21.9881 3.06304C22.3645 2.91185 22.7681 2.83465 23.1754 2.83594H34.0849C34.9034 2.84114 35.6865 3.16037 36.2634 3.72395C36.8403 4.28754 37.164 5.04972 37.164 5.84416C37.164 6.63859 36.8403 7.40078 36.2634 7.96436C35.6865 8.52795 34.9034 8.84718 34.0849 8.85238H23.1754C22.5624 8.85224 21.9633 8.67572 21.4536 8.34512C20.944 8.01452 20.5468 7.54469 20.3123 6.99502C20.0777 6.44536 20.0164 5.84054 20.1359 5.25702C20.2555 4.67351 20.5506 4.1375 20.984 3.71675H20.9828ZM8.36893 60.5344C7.75382 60.5337 7.1641 60.2962 6.72915 59.8741C6.2942 59.4519 6.04953 58.8795 6.04883 58.2825V8.86952C6.04953 8.27249 6.29419 7.7001 6.72914 7.27793C7.16409 6.85575 7.7538 6.61825 8.36893 6.61753H18.5506C18.7397 7.67533 19.3072 8.63449 20.1531 9.32622C20.9991 10.018 22.0693 10.3979 23.1754 10.3993H34.0849C35.1913 10.3989 36.262 10.0192 37.1081 9.32733C37.9542 8.63544 38.5214 7.67573 38.7096 6.61753H48.8906C49.5057 6.61821 50.0954 6.8557 50.5304 7.27789C50.9653 7.70007 51.21 8.27248 51.2107 8.86952V33.4025C47.6726 32.5244 43.9336 32.8194 40.5881 34.2406C37.2426 35.6617 34.4825 38.1275 32.7466 41.246C31.0107 44.3644 30.3985 47.9566 31.0075 51.4514C31.6164 54.9463 33.4115 58.1434 36.1074 60.5344H8.36893ZM47.1623 63.1641C44.2375 63.1641 41.3783 62.3223 38.9464 60.7451C36.5145 59.168 34.6191 56.9263 33.4998 54.3036C32.3805 51.6809 32.0877 48.795 32.6583 46.0107C33.2289 43.2265 34.6373 40.669 36.7055 38.6616C38.7736 36.6543 41.4086 35.2873 44.2772 34.7335C47.1459 34.1796 50.1193 34.4639 52.8214 35.5503C55.5236 36.6366 57.8332 38.4763 59.4582 40.8367C61.0831 43.197 61.9504 45.9721 61.9504 48.8109C61.946 52.6163 60.3865 56.2646 57.6142 58.9554C54.8418 61.6462 51.083 63.1598 47.1623 63.1641Z" fill="#777777"/>
<path d="M52.8335 44.2303L45.085 51.7508L41.4925 48.264C41.3427 48.1209 41.1407 48.0411 40.9304 48.0419C40.7202 48.0427 40.5189 48.1241 40.3702 48.2684C40.2215 48.4126 40.1376 48.6081 40.1367 48.8121C40.1358 49.0161 40.2181 49.2122 40.3655 49.3577L44.5215 53.3914C44.5955 53.4633 44.6833 53.5202 44.78 53.5591C44.8767 53.598 44.9803 53.618 45.085 53.618C45.1896 53.618 45.2933 53.598 45.39 53.5591C45.4866 53.5202 45.5745 53.4633 45.6485 53.3914L53.9608 45.3234C54.0365 45.252 54.0967 45.1666 54.1381 45.0724C54.1795 44.9781 54.2012 44.8768 54.2019 44.7744C54.2026 44.6719 54.1823 44.5704 54.1423 44.4756C54.1022 44.3808 54.0431 44.2947 53.9685 44.2223C53.8938 44.1498 53.8051 44.0925 53.7074 44.0536C53.6098 44.0147 53.5051 43.9951 53.3996 43.9958C53.294 43.9965 53.1897 44.0175 53.0926 44.0577C52.9954 44.0979 52.9075 44.1564 52.8339 44.2298L52.8335 44.2303Z" fill="#777777"/>
</svg>
