<svg width="66" height="66" viewBox="0 0 66 66" fill="none" xmlns="http://www.w3.org/2000/svg">
<path d="M57.6517 8.74692H52.0854V3.18076C52.0855 1.43124 50.654 0 48.9054 0H8.35055C6.60117 0 5.16992 1.43124 5.16992 3.18076V54.0722C5.16992 55.8216 6.60117 57.253 8.35068 57.253H13.917V62.8192C13.917 64.5686 15.3476 66 17.0977 66H44.1331C45.8817 66 48.3563 65.0188 49.6293 63.8205L58.5147 55.4568C59.7893 54.2585 60.831 51.8459 60.831 50.0965L60.8326 11.9279C60.8324 10.1783 59.4011 8.74692 57.6517 8.74692ZM13.9167 11.9278V54.8674H8.35055C7.91962 54.8674 7.55546 54.5033 7.55546 54.0723V3.18076C7.55546 2.74982 7.91962 2.38566 8.35055 2.38566H48.9055C49.3357 2.38566 49.7006 2.74982 49.7006 3.18076V8.74705H17.0975C15.3473 8.74705 13.9167 10.1783 13.9167 11.9278ZM56.8797 53.7199L47.9943 62.0829C47.8123 62.254 47.5752 62.4217 47.3135 62.5814V55.265C47.3135 54.7187 47.5339 54.2271 47.8972 53.8614C48.2638 53.4981 48.7552 53.2771 49.3015 53.2771H57.2574C57.134 53.4447 57.0077 53.599 56.8797 53.7199ZM58.4452 50.0962C58.4452 50.3324 58.4022 50.6059 58.3371 50.8913H49.3014C46.8882 50.8961 44.9328 52.8515 44.9279 55.2648V63.5179C44.644 63.5753 44.3705 63.6141 44.1328 63.6141H17.0975V63.6142C16.6656 63.6142 16.3024 63.2501 16.3024 62.8191V11.9277C16.3024 11.4967 16.6658 11.1326 17.0975 11.1326H57.6516C58.0825 11.1326 58.4466 11.4967 58.4466 11.9277L58.4452 50.0962Z" fill="#777777"/>
<path d="M48.9033 19.8794H25.8432C25.1839 19.8794 24.6504 20.4129 24.6504 21.0721C24.6504 21.7314 25.1841 22.2649 25.8432 22.2649H48.9033C49.5617 22.2649 50.0961 21.7314 50.0961 21.0721C50.0961 20.4129 49.5617 19.8794 48.9033 19.8794Z" fill="#777777"/>
<path d="M48.9033 35.783H25.8432C25.1839 35.783 24.6504 36.3166 24.6504 36.9758C24.6504 37.635 25.1841 38.1686 25.8432 38.1686H48.9033C49.5617 38.1686 50.0961 37.635 50.0961 36.9758C50.0961 36.3164 49.5617 35.783 48.9033 35.783Z" fill="#777777"/>
<path d="M38.5659 43.7348H25.8432C25.1839 43.7348 24.6504 44.2684 24.6504 44.9276C24.6504 45.5868 25.1839 46.1204 25.8432 46.1204H38.5659C39.2244 46.1204 39.7579 45.5868 39.7579 44.9276C39.7579 44.2684 39.2244 43.7348 38.5659 43.7348Z" fill="#777777"/>
<path d="M48.9033 27.8312H25.8432C25.1839 27.8312 24.6504 28.3647 24.6504 29.0239C24.6504 29.6832 25.1841 30.2167 25.8432 30.2167H48.9033C49.5617 30.2167 50.0961 29.6832 50.0961 29.0239C50.0961 28.3647 49.5617 27.8312 48.9033 27.8312Z" fill="#777777"/>
</svg>
