<svg width="66" height="66" viewBox="0 0 66 66" fill="none" xmlns="http://www.w3.org/2000/svg">
<g clip-path="url(#clip0)">
<path d="M66 47.3186V38.5439C65.9883 31.0825 60.2295 24.8902 52.7886 24.3378C52.8204 23.9561 52.838 14.4136 52.838 14.4136C52.8289 6.54247 46.4503 0.163834 38.5791 0.154785H14.4488C6.57767 0.163834 0.199042 6.54247 0.189993 14.4136V23.1883C0.183549 27.0908 1.7815 30.8243 4.60913 33.5139L0.189993 40.0005C-0.150711 40.5014 -0.0207361 41.1836 0.480105 41.5243C0.789961 41.735 1.18605 41.773 1.53032 41.6249L11.8033 37.2069C12.3308 37.3005 12.8633 37.365 13.3981 37.3999C13.3662 37.7827 13.3487 38.1677 13.3487 38.5439V47.3186C13.3577 55.1911 19.7383 61.5702 27.6108 61.5774H51.7411C52.5657 61.5774 53.3887 61.5074 54.2013 61.3679L64.4019 65.7553C64.9581 65.9952 65.6035 65.7388 65.8434 65.1826C65.9923 64.8375 65.954 64.4402 65.7422 64.1298L61.4262 57.789C64.352 55.095 66.0115 51.2957 66 47.3186ZM15.1387 31.6405C15.029 31.8291 14.9369 32.0211 14.8415 32.2152C14.7559 32.3874 14.6726 32.5596 14.5936 32.7351C14.5059 32.9336 14.4258 33.1366 14.3457 33.3406C14.2755 33.5204 14.2053 33.6992 14.1417 33.8835C14.0704 34.093 14.0068 34.308 13.9443 34.5229C13.8905 34.7083 13.8346 34.8926 13.7874 35.0812C13.7732 35.1383 13.7534 35.1909 13.7392 35.2512C13.1234 35.2163 12.5113 35.1357 11.9075 35.0099C11.6891 34.9577 11.46 34.9746 11.2516 35.0582L4.12214 38.1228L6.96184 33.9548C7.28006 33.4867 7.18971 32.8533 6.75344 32.4927C3.97832 30.2012 2.37502 26.7873 2.38366 23.1883V14.4136C2.39147 7.75351 7.78871 2.35627 14.4488 2.34845H38.5791C45.2392 2.35627 50.6365 7.75351 50.6443 14.4136C50.6443 14.4136 50.6268 23.9177 50.5928 24.2851H27.6108C27.1831 24.2851 26.7601 24.3042 26.3418 24.3421C26.2025 24.3542 26.0665 24.3783 25.9283 24.3948C25.6519 24.4266 25.3744 24.4584 25.1024 24.5045C24.94 24.533 24.781 24.5747 24.6208 24.6087C24.3784 24.6602 24.135 24.7085 23.8969 24.7721C23.728 24.8171 23.5679 24.873 23.399 24.9246C23.1796 24.9926 22.9504 25.0595 22.731 25.1439C22.5632 25.2054 22.402 25.2756 22.2352 25.3425C22.0246 25.428 21.8141 25.5114 21.61 25.6057C21.4444 25.6814 21.281 25.7669 21.123 25.8492C20.9267 25.949 20.7304 26.0488 20.5384 26.1574C20.3794 26.2484 20.2247 26.3461 20.069 26.4426C19.8836 26.5578 19.6994 26.6729 19.5206 26.7958C19.3692 26.9 19.2211 27.0151 19.0731 27.1248C18.9009 27.2531 18.7298 27.3826 18.563 27.5197C18.4194 27.637 18.2801 27.7599 18.1419 27.8827C17.9817 28.0253 17.8238 28.1679 17.6702 28.3215C17.5364 28.452 17.4059 28.5858 17.2765 28.7218C17.1306 28.8765 16.9869 29.0322 16.8476 29.1934C16.7237 29.3349 16.6041 29.4797 16.4856 29.6322C16.3533 29.7989 16.2242 29.9682 16.0985 30.14C15.9866 30.2936 15.8769 30.4486 15.7694 30.6051C15.6509 30.7828 15.5365 30.9633 15.4261 31.1469C15.3274 31.3092 15.2309 31.4759 15.1387 31.6405ZM59.0625 58.2134L61.8134 62.252L54.7651 59.2214C54.6268 59.1611 54.4773 59.1305 54.3264 59.1315C54.2554 59.1312 54.1843 59.1382 54.1147 59.1523C53.3329 59.306 52.538 59.3836 51.7411 59.3838H27.6108C20.9507 59.3759 15.5535 53.9787 15.5457 47.3186V38.5439C15.5529 31.8836 20.9504 26.486 27.6108 26.4788H51.7411C58.4012 26.4866 63.7985 31.8838 63.8063 38.5439V47.3186C63.8175 50.9853 62.1508 54.4558 59.2819 56.7393C58.8348 57.098 58.7392 57.7402 59.0625 58.2134Z" fill="#777777"/>
<path d="M34.1929 44.0281H31.9992C31.3935 44.0281 30.9023 44.5192 30.9023 45.1249C30.9023 45.7306 31.3935 46.2217 31.9992 46.2217H34.1929C34.7986 46.2217 35.2897 45.7306 35.2897 45.1249C35.2897 44.5192 34.7986 44.0281 34.1929 44.0281Z" fill="#777777"/>
<path d="M40.7729 44.0281H38.5793C37.9735 44.0281 37.4824 44.5192 37.4824 45.1249C37.4824 45.7306 37.9735 46.2217 38.5793 46.2217H40.7729C41.3786 46.2217 41.8698 45.7306 41.8698 45.1249C41.8698 44.5192 41.3786 44.0281 40.7729 44.0281Z" fill="#777777"/>
<path d="M47.355 44.0281H45.1613C44.5556 44.0281 44.0645 44.5192 44.0645 45.1249C44.0645 45.7306 44.5556 46.2217 45.1613 46.2217H47.355C47.9607 46.2217 48.4518 45.7306 48.4518 45.1249C48.4518 44.5192 47.9607 44.0281 47.355 44.0281Z" fill="#777777"/>
</g>
<defs>
<clipPath id="clip0">
<rect width="66" height="66" fill="white"/>
</clipPath>
</defs>
</svg>
