<svg width="66" height="66" viewBox="0 0 66 66" fill="none" xmlns="http://www.w3.org/2000/svg">
<path d="M60.9618 28.875H57.7509C57.568 28.2129 57.1745 27.6283 56.6299 27.2097C56.0853 26.7911 55.4192 26.5612 54.7323 26.5547H51.3047V18.1727C51.3086 18.0159 51.2707 17.8609 51.1949 17.7236C51.1191 17.5862 51.0081 17.4716 50.8734 17.3913L26.6935 3.4253C26.5572 3.34609 26.4024 3.30437 26.2448 3.30437C26.0872 3.30437 25.9324 3.34609 25.7961 3.4253L1.60875 17.3913C1.4719 17.4706 1.35837 17.5846 1.27961 17.7218C1.20086 17.859 1.15965 18.0145 1.16016 18.1727V46.1047C1.16016 46.2631 1.20186 46.4187 1.28106 46.5559C1.36025 46.6931 1.47416 46.807 1.61133 46.8862L25.8011 60.8521C25.9383 60.9313 26.0939 60.973 26.2523 60.973C26.4148 60.9731 26.5746 60.9315 26.7163 60.8521L39.4453 53.51V58.8176C39.444 59.3229 39.5429 59.8235 39.7364 60.2903C39.9298 60.7571 40.214 61.181 40.5723 61.5372C40.9307 61.8935 41.3561 62.1752 41.8241 62.3659C42.292 62.5567 42.7931 62.6527 43.2985 62.6484H60.9618C61.4684 62.6531 61.971 62.5576 62.4405 62.3674C62.9101 62.1771 63.3374 61.8958 63.6978 61.5398C64.0582 61.1838 64.3447 60.7599 64.5407 60.2928C64.7367 59.8256 64.8384 59.3242 64.8398 58.8176V32.7657C64.8392 31.7362 64.4309 30.7488 63.7041 30.0197C62.9773 29.2905 61.9913 28.879 60.9618 28.875ZM54.7644 28.3594C55.1118 28.3594 55.445 28.4974 55.6906 28.743C55.9362 28.9887 56.0742 29.3218 56.0742 29.6692V29.7566C56.0742 30.104 55.9362 30.4371 55.6906 30.6828C55.445 30.9284 55.1118 31.0664 54.7644 31.0664H49.5208C49.1734 31.0664 48.8402 30.9284 48.5946 30.6828C48.3489 30.4371 48.2109 30.104 48.2109 29.7566V29.6692C48.2109 29.3218 48.3489 28.9887 48.5946 28.743C48.8402 28.4974 49.1734 28.3594 49.5208 28.3594H54.7644ZM26.2523 5.24868L36.3036 11.0518L13.9201 23.9749L3.86887 18.1718L26.2523 5.24868ZM25.3945 58.5077L2.96485 45.5837V19.7336L25.3945 32.6576V58.5077ZM26.2523 31.0948L15.7248 25.0167L38.1083 12.0937L48.6363 18.1718L26.2523 31.0948ZM39.4453 32.7657V51.4262L27.1992 58.5077V32.6576L49.5 19.7336V26.5547H49.528C48.8411 26.5611 48.175 26.7911 47.6304 27.2097C47.0858 27.6283 46.6923 28.2129 46.5094 28.875H43.2985C42.2716 28.88 41.2887 29.2927 40.5661 30.0223C39.8435 30.752 39.4403 31.7388 39.4453 32.7657ZM63.0352 58.8176C63.0339 59.0873 62.9791 59.3541 62.8739 59.6025C62.7687 59.8508 62.6151 60.0758 62.4222 60.2643C62.2293 60.4528 62.0009 60.6011 61.7502 60.7006C61.4995 60.8001 61.2315 60.8487 60.9618 60.8438H43.2985C43.0301 60.8483 42.7635 60.7991 42.5144 60.6992C42.2653 60.5992 42.0387 60.4505 41.8478 60.2618C41.657 60.073 41.5058 59.848 41.4032 59.6C41.3005 59.352 41.2484 59.086 41.25 58.8176V32.7657C41.2473 32.4941 41.2981 32.2247 41.3997 31.9728C41.5012 31.721 41.6514 31.4916 41.8416 31.2979C42.0319 31.1041 42.2585 30.9498 42.5085 30.8437C42.7585 30.7376 43.0269 30.6819 43.2985 30.6797H46.5446C46.7381 31.3184 47.1334 31.8772 47.6713 32.2723C48.2092 32.6674 48.8606 32.8775 49.528 32.8711H54.7323C55.3997 32.8775 56.0511 32.6674 56.589 32.2723C57.1268 31.8772 57.5221 31.3184 57.7156 30.6797H60.9618C61.5128 30.6832 62.0401 30.9045 62.4285 31.2953C62.817 31.6861 63.035 32.2146 63.0352 32.7657V58.8176Z" fill="#777777"/>
<path d="M44.3372 41.8945H45.2817C45.521 41.8945 45.7505 41.7995 45.9197 41.6302C46.089 41.461 46.184 41.2315 46.184 40.9922C46.184 40.7529 46.089 40.5234 45.9197 40.3541C45.7505 40.1849 45.521 40.0898 45.2817 40.0898H45.2461V37.6406H47.7349C47.7916 37.8221 47.9061 37.9799 48.0611 38.09C48.216 38.2 48.4028 38.2562 48.5928 38.25C48.8324 38.2506 49.0625 38.1562 49.2326 37.9874C49.4026 37.8186 49.4988 37.5893 49.5 37.3497V36.7425C49.498 36.5018 49.4011 36.2715 49.2303 36.1018C49.0595 35.932 48.8287 35.8365 48.5879 35.8359H44.3372C44.2188 35.8365 44.1017 35.8605 43.9926 35.9064C43.8835 35.9523 43.7845 36.0193 43.7013 36.1035C43.6181 36.1877 43.5523 36.2875 43.5077 36.3971C43.4631 36.5068 43.4406 36.6242 43.4414 36.7425V40.9932C43.4407 41.1113 43.4634 41.2284 43.5081 41.3377C43.5527 41.447 43.6186 41.5464 43.7019 41.6302C43.7851 41.7139 43.8841 41.7804 43.9931 41.8258C44.1022 41.8712 44.2191 41.8945 44.3372 41.8945Z" fill="#777777"/>
<path d="M44.3438 50.1445H48.5977C48.837 50.1445 49.0665 50.0495 49.2357 49.8802C49.4049 49.711 49.5 49.4815 49.5 49.2422V44.9883C49.5 44.749 49.4049 44.5195 49.2357 44.3502C49.0665 44.181 48.837 44.0859 48.5977 44.0859H44.3438C44.1044 44.0859 43.8749 44.181 43.7057 44.3502C43.5365 44.5195 43.4414 44.749 43.4414 44.9883V49.2422C43.4414 49.4815 43.5365 49.711 43.7057 49.8802C43.8749 50.0495 44.1044 50.1445 44.3438 50.1445ZM45.2461 45.8906H47.6953V48.3398H45.2461V45.8906Z" fill="#777777"/>
<path d="M45.2819 56.5898H45.2462V54.1406H47.6862C47.6909 54.3779 47.7884 54.6039 47.9577 54.7702C48.1271 54.9365 48.3549 55.0297 48.5923 55.0299C48.8296 55.0302 49.0576 54.9374 49.2273 54.7715C49.397 54.6055 49.4949 54.3797 49.5001 54.1424V53.273C49.4991 53.029 49.4035 52.7949 49.2333 52.6201C49.0632 52.4453 48.8318 52.3434 48.5879 52.3359H44.3372C44.0951 52.3441 43.8658 52.4467 43.6983 52.6218C43.5309 52.797 43.4387 53.0307 43.4415 53.273V57.5236C43.4413 57.6401 43.4646 57.7555 43.5099 57.8629C43.5552 57.9702 43.6216 58.0674 43.7051 58.1486C43.7887 58.2298 43.8877 58.2934 43.9962 58.3357C44.1048 58.3779 44.2208 58.3979 44.3372 58.3945H45.2819C45.5212 58.3945 45.7507 58.2995 45.9199 58.1302C46.0891 57.961 46.1842 57.7315 46.1842 57.4922C46.1842 57.2529 46.0891 57.0234 45.9199 56.8541C45.7507 56.6849 45.5212 56.5898 45.2819 56.5898Z" fill="#777777"/>
<path d="M50.6646 36.9435L48.0221 39.5861L47.2182 38.7821C47.1344 38.6983 47.0349 38.6318 46.9255 38.5865C46.816 38.5411 46.6986 38.5178 46.5801 38.5178C46.4616 38.5178 46.3443 38.5411 46.2348 38.5865C46.1253 38.6318 46.0258 38.6983 45.942 38.7821C45.8582 38.8659 45.7918 38.9654 45.7464 39.0748C45.7011 39.1843 45.6777 39.3017 45.6777 39.4202C45.6777 39.5387 45.7011 39.656 45.7464 39.7655C45.7918 39.875 45.8582 39.9745 45.942 40.0583L47.3841 41.5002C47.4679 41.584 47.5674 41.6505 47.6769 41.6958C47.7863 41.7412 47.9037 41.7645 48.0222 41.7645C48.1407 41.7645 48.258 41.7412 48.3675 41.6958C48.477 41.6505 48.5765 41.584 48.6603 41.5002L51.9412 38.2193C52.1104 38.0501 52.2055 37.8205 52.2055 37.5812C52.2055 37.3419 52.1104 37.1123 51.9412 36.9431C51.772 36.7739 51.5425 36.6788 51.3031 36.6788C51.0638 36.6788 50.8343 36.7739 50.665 36.9431L50.6646 36.9435Z" fill="#777777"/>
<path d="M50.6646 53.6045L48.0221 56.2471L47.2182 55.4431C47.1344 55.3593 47.0349 55.2928 46.9255 55.2475C46.816 55.2021 46.6986 55.1788 46.5801 55.1788C46.4616 55.1788 46.3443 55.2021 46.2348 55.2475C46.1253 55.2928 46.0258 55.3593 45.942 55.4431C45.8582 55.5269 45.7918 55.6264 45.7464 55.7358C45.7011 55.8453 45.6777 55.9627 45.6777 56.0812C45.6777 56.1997 45.7011 56.317 45.7464 56.4265C45.7918 56.536 45.8582 56.6355 45.942 56.7192L47.3841 58.1612C47.4679 58.245 47.5674 58.3115 47.6769 58.3568C47.7863 58.4022 47.9037 58.4255 48.0222 58.4255C48.1407 58.4255 48.258 58.4022 48.3675 58.3568C48.477 58.3115 48.5765 58.245 48.6603 58.1612L51.9412 54.8803C52.1104 54.711 52.2055 54.4815 52.2055 54.2422C52.2055 54.0029 52.1104 53.7733 51.9412 53.6041C51.772 53.4349 51.5425 53.3398 51.3031 53.3398C51.0638 53.3398 50.8343 53.4349 50.665 53.6041L50.6646 53.6045Z" fill="#777777"/>
<path d="M59.9234 38.0273H54.2559C54.0165 38.0273 53.787 38.1224 53.6178 38.2916C53.4486 38.4609 53.3535 38.6904 53.3535 38.9297C53.3535 39.169 53.4486 39.3985 53.6178 39.5677C53.787 39.737 54.0165 39.832 54.2559 39.832H59.9234C60.1627 39.832 60.3922 39.737 60.5614 39.5677C60.7306 39.3985 60.8257 39.169 60.8257 38.9297C60.8257 38.6904 60.7306 38.4609 60.5614 38.2916C60.3922 38.1224 60.1627 38.0273 59.9234 38.0273Z" fill="#777777"/>
<path d="M59.9234 46.2773H54.2559C54.0165 46.2773 53.787 46.3724 53.6178 46.5416C53.4486 46.7109 53.3535 46.9404 53.3535 47.1797C53.3535 47.419 53.4486 47.6485 53.6178 47.8177C53.787 47.987 54.0165 48.082 54.2559 48.082H59.9234C60.1627 48.082 60.3922 47.987 60.5614 47.8177C60.7306 47.6485 60.8257 47.419 60.8257 47.1797C60.8257 46.9404 60.7306 46.7109 60.5614 46.5416C60.3922 46.3724 60.1627 46.2773 59.9234 46.2773Z" fill="#777777"/>
<path d="M59.9234 54.5273H54.2559C54.0165 54.5273 53.787 54.6224 53.6178 54.7916C53.4486 54.9609 53.3535 55.1904 53.3535 55.4297C53.3535 55.669 53.4486 55.8985 53.6178 56.0677C53.787 56.237 54.0165 56.332 54.2559 56.332H59.9234C60.1627 56.332 60.3922 56.237 60.5614 56.0677C60.7306 55.8985 60.8257 55.669 60.8257 55.4297C60.8257 55.1904 60.7306 54.9609 60.5614 54.7916C60.3922 54.6224 60.1627 54.5273 59.9234 54.5273Z" fill="#777777"/>
</svg>
