<svg width="153" height="24" viewBox="0 0 153 24" fill="none" xmlns="http://www.w3.org/2000/svg">
<path d="M16.6177 18.14H6.11773L4.04773 23H0.0277344L9.47773 2H13.3177L22.7977 23H18.7177L16.6177 18.14ZM15.3277 15.08L11.3677 5.9L7.43773 15.08H15.3277ZM43.3255 6.98V23H39.7555V20.96C39.1555 21.68 38.4055 22.24 37.5055 22.64C36.6055 23.02 35.6355 23.21 34.5955 23.21C32.4555 23.21 30.7655 22.62 29.5255 21.44C28.3055 20.24 27.6955 18.47 27.6955 16.13V6.98H31.4455V15.62C31.4455 17.06 31.7655 18.14 32.4055 18.86C33.0655 19.56 33.9955 19.91 35.1955 19.91C36.5355 19.91 37.5955 19.5 38.3755 18.68C39.1755 17.84 39.5755 16.64 39.5755 15.08V6.98H43.3255ZM60.8654 22.13C60.4254 22.49 59.8854 22.76 59.2454 22.94C58.6254 23.12 57.9654 23.21 57.2654 23.21C55.5054 23.21 54.1454 22.75 53.1854 21.83C52.2254 20.91 51.7454 19.57 51.7454 17.81V10.1H49.1054V7.1H51.7454V3.44H55.4954V7.1H59.7854V10.1H55.4954V17.72C55.4954 18.5 55.6854 19.1 56.0654 19.52C56.4454 19.92 56.9954 20.12 57.7154 20.12C58.5554 20.12 59.2554 19.9 59.8154 19.46L60.8654 22.13ZM73.6229 23.21C72.0029 23.21 70.5429 22.86 69.2429 22.16C67.9429 21.46 66.9229 20.49 66.1829 19.25C65.4629 17.99 65.1029 16.57 65.1029 14.99C65.1029 13.41 65.4629 12 66.1829 10.76C66.9229 9.52 67.9429 8.55 69.2429 7.85C70.5429 7.15 72.0029 6.8 73.6229 6.8C75.2629 6.8 76.7329 7.15 78.0329 7.85C79.3329 8.55 80.3429 9.52 81.0629 10.76C81.8029 12 82.1729 13.41 82.1729 14.99C82.1729 16.57 81.8029 17.99 81.0629 19.25C80.3429 20.49 79.3329 21.46 78.0329 22.16C76.7329 22.86 75.2629 23.21 73.6229 23.21ZM73.6229 20C75.0029 20 76.1429 19.54 77.0429 18.62C77.9429 17.7 78.3929 16.49 78.3929 14.99C78.3929 13.49 77.9429 12.28 77.0429 11.36C76.1429 10.44 75.0029 9.98 73.6229 9.98C72.2429 9.98 71.1029 10.44 70.2029 11.36C69.3229 12.28 68.8829 13.49 68.8829 14.99C68.8829 16.49 69.3229 17.7 70.2029 18.62C71.1029 19.54 72.2429 20 73.6229 20Z" fill="white"/>
<path d="M97.8488 6.8C99.8688 6.8 101.489 7.39 102.709 8.57C103.929 9.75 104.539 11.5 104.539 13.82V23H100.789V14.3C100.789 12.9 100.459 11.85 99.7988 11.15C99.1388 10.43 98.1988 10.07 96.9788 10.07C95.5988 10.07 94.5088 10.49 93.7088 11.33C92.9088 12.15 92.5088 13.34 92.5088 14.9V23H88.7588V0.739999H92.5088V8.84C93.1288 8.18 93.8888 7.68 94.7888 7.34C95.7088 6.98 96.7288 6.8 97.8488 6.8ZM127.806 6.98V23H124.236V20.96C123.636 21.68 122.886 22.24 121.986 22.64C121.086 23.02 120.116 23.21 119.076 23.21C116.936 23.21 115.246 22.62 114.006 21.44C112.786 20.24 112.176 18.47 112.176 16.13V6.98H115.926V15.62C115.926 17.06 116.246 18.14 116.886 18.86C117.546 19.56 118.476 19.91 119.676 19.91C121.016 19.91 122.076 19.5 122.856 18.68C123.656 17.84 124.056 16.64 124.056 15.08V6.98H127.806ZM144.596 6.8C146.156 6.8 147.546 7.14 148.766 7.82C150.006 8.5 150.976 9.46 151.676 10.7C152.376 11.94 152.726 13.37 152.726 14.99C152.726 16.61 152.376 18.05 151.676 19.31C150.976 20.55 150.006 21.51 148.766 22.19C147.546 22.87 146.156 23.21 144.596 23.21C143.496 23.21 142.486 23.02 141.566 22.64C140.666 22.26 139.906 21.69 139.286 20.93V23H135.716V0.739999H139.466V8.93C140.106 8.23 140.856 7.7 141.716 7.34C142.596 6.98 143.556 6.8 144.596 6.8ZM144.176 20C145.556 20 146.686 19.54 147.566 18.62C148.466 17.7 148.916 16.49 148.916 14.99C148.916 13.49 148.466 12.28 147.566 11.36C146.686 10.44 145.556 9.98 144.176 9.98C143.276 9.98 142.466 10.19 141.746 10.61C141.026 11.01 140.456 11.59 140.036 12.35C139.616 13.11 139.406 13.99 139.406 14.99C139.406 15.99 139.616 16.87 140.036 17.63C140.456 18.39 141.026 18.98 141.746 19.4C142.466 19.8 143.276 20 144.176 20Z" fill="#FF3234"/>
</svg>
