<svg width="30" height="30" viewBox="0 0 30 30" fill="none" xmlns="http://www.w3.org/2000/svg">
<path d="M15.0013 29.9999C8.93487 30.0034 3.46416 26.3495 1.14214 20.7434C-1.17988 15.1372 0.104501 8.68374 4.39593 4.39458C8.18488 0.604481 13.7074 -0.87572 18.8832 0.511552C24.059 1.89882 28.1018 5.94281 29.4886 11.1202C30.8755 16.2975 29.3957 21.8217 25.6068 25.6118C22.7994 28.4327 18.9805 30.0128 15.0013 29.9999ZM3.00766 15.2611C3.07859 21.8615 8.46644 27.1648 15.0651 27.1295C21.6638 27.0938 26.9943 21.7329 26.9943 15.1322C26.9943 8.53141 21.6638 3.17051 15.0651 3.13486C8.46644 3.09955 3.07859 8.40282 3.00766 15.0032V15.2611ZM11.1169 21.0019L9.0045 18.8873L12.8875 15.0032L9.0045 11.1191L11.1184 9.00454L15.0013 12.8887L18.8843 9.00454L20.9982 11.1191L17.1152 15.0032L20.9982 18.8873L18.8858 21.0019L15.0013 17.1177L11.1184 21.0019H11.1169Z" fill="#14191C"/>
</svg>
