<svg width="20" height="20" viewBox="0 0 20 20" fill="none" xmlns="http://www.w3.org/2000/svg">
<path d="M13.7809 2.43945C13.7569 2.42741 13.7304 2.4217 13.7036 2.42289C13.6769 2.42408 13.6509 2.43211 13.6281 2.44623C13.6054 2.46035 13.5867 2.48007 13.5737 2.50351C13.5608 2.52694 13.5541 2.55331 13.5543 2.58008V3.83398C13.5543 3.94141 13.6109 4.04102 13.7008 4.09961C14.1412 4.37683 14.5488 4.70314 14.9156 5.07227C15.5543 5.71289 16.0562 6.45703 16.4059 7.28516C16.7674 8.14244 16.9527 9.06373 16.9508 9.99414C16.9508 10.9336 16.7672 11.8457 16.4059 12.7031C16.0566 13.5301 15.5506 14.2815 14.9156 14.916C14.2828 15.5526 13.5318 16.0594 12.7047 16.4082C11.8492 16.7715 10.9371 16.9551 9.9996 16.9551C9.0621 16.9551 8.14999 16.7715 7.29453 16.4082C6.46745 16.0594 5.71643 15.5526 5.08359 14.916C4.44863 14.2815 3.94257 13.5301 3.59335 12.7031C3.2318 11.8458 3.04648 10.9246 3.04843 9.99414C3.04843 9.05469 3.23203 8.14258 3.59335 7.28516C3.94296 6.45703 4.44492 5.71289 5.08359 5.07227C5.45468 4.70117 5.86093 4.37695 6.29843 4.09961C6.39023 4.04297 6.44492 3.94141 6.44492 3.83398V2.57812C6.44492 2.46094 6.32187 2.38672 6.21835 2.4375C3.48593 3.8125 1.60117 6.62695 1.5621 9.88867C1.50742 14.5527 5.32187 18.4277 9.98398 18.4375C14.6519 18.4473 18.4371 14.6621 18.4371 9.99219C18.4371 6.6875 16.5426 3.82617 13.7809 2.43945ZM9.3746 10.9375H10.6246C10.7105 10.9375 10.7809 10.8672 10.7809 10.7812V1.71875C10.7809 1.63281 10.7105 1.5625 10.6246 1.5625H9.3746C9.28867 1.5625 9.21835 1.63281 9.21835 1.71875V10.7812C9.21835 10.8672 9.28867 10.9375 9.3746 10.9375Z" fill="#FF4545"/>
</svg>
