<svg width="21" height="21" viewBox="0 0 21 21" fill="none" xmlns="http://www.w3.org/2000/svg">
<path d="M17.9874 4.89521L15.8033 2.71318C15.5367 2.44658 15.1799 2.29688 14.8025 2.29688C14.4252 2.29688 14.0684 2.44453 13.8018 2.71318L11.4495 5.06133C11.1829 5.32793 11.0332 5.68682 11.0332 6.06416C11.0332 6.44355 11.1809 6.79834 11.4495 7.06699L13.287 8.90654C12.8684 9.88187 12.267 10.768 11.5151 11.5172C10.7625 12.2739 9.88272 12.8707 8.90654 13.2932L7.06904 11.4536C6.80244 11.187 6.44561 11.0373 6.06826 11.0373C5.88214 11.0366 5.69775 11.0731 5.5259 11.1446C5.35405 11.2161 5.1982 11.3211 5.06748 11.4536L2.71318 13.8018C2.44658 14.0684 2.29688 14.4272 2.29688 14.8046C2.29688 15.184 2.44453 15.5388 2.71318 15.8074L4.89522 17.9895C5.35049 18.4447 5.97803 18.7052 6.62197 18.7052C6.75527 18.7052 6.88447 18.6949 7.01572 18.6724C9.73096 18.2253 12.4257 16.7795 14.6016 14.6057C16.7754 12.4277 18.2191 9.73301 18.6703 7.01572C18.7995 6.24463 18.5411 5.45098 17.9874 4.89521ZM17.2163 6.77168C16.8164 9.18955 15.5162 11.6013 13.5577 13.5598C11.5992 15.5183 9.18955 16.8185 6.77168 17.2184C6.46816 17.2696 6.15645 17.1671 5.93496 16.9477L3.79189 14.8046L6.06416 12.5303L8.521 14.9912L8.53945 15.0097L8.98242 14.8456C10.3255 14.3518 11.5452 13.5718 12.5569 12.5598C13.5686 11.5477 14.3482 10.3278 14.8415 8.98447L15.0056 8.5415L12.5282 6.06621L14.8005 3.79189L16.9436 5.93496C17.165 6.15645 17.2676 6.46816 17.2163 6.77168Z" fill="#777777"/>
</svg>
