<svg width="30" height="27" viewBox="0 0 30 27" fill="none" xmlns="http://www.w3.org/2000/svg">
<g filter="url(#filter0_d)">
<path d="M15 8.09474C12.8496 8.09474 11.0947 9.84962 11.0947 12C11.0947 14.1504 12.8496 15.9053 15 15.9053C17.1504 15.9053 18.9053 14.1504 18.9053 12C18.9053 9.84962 17.1504 8.09474 15 8.09474ZM26.7129 12C26.7129 10.3828 26.7276 8.78029 26.6367 7.16603C26.5459 5.29103 26.1182 3.62697 24.7471 2.25588C23.3731 0.881853 21.7119 0.457048 19.8369 0.366228C18.2197 0.275408 16.6172 0.290056 15.0029 0.290056C13.3858 0.290056 11.7832 0.275408 10.169 0.366228C8.29396 0.457048 6.6299 0.884782 5.25881 2.25588C3.88478 3.6299 3.45998 5.29103 3.36916 7.16603C3.27834 8.78322 3.29299 10.3858 3.29299 12C3.29299 13.6143 3.27834 15.2197 3.36916 16.834C3.45998 18.709 3.88771 20.3731 5.25881 21.7442C6.63283 23.1182 8.29396 23.543 10.169 23.6338C11.7861 23.7246 13.3887 23.71 15.0029 23.71C16.6201 23.71 18.2227 23.7246 19.8369 23.6338C21.7119 23.543 23.376 23.1152 24.7471 21.7442C26.1211 20.3701 26.5459 18.709 26.6367 16.834C26.7305 15.2197 26.7129 13.6172 26.7129 12ZM15 18.0088C11.6748 18.0088 8.99123 15.3252 8.99123 12C8.99123 8.67482 11.6748 5.99123 15 5.99123C18.3252 5.99123 21.0088 8.67482 21.0088 12C21.0088 15.3252 18.3252 18.0088 15 18.0088ZM21.2549 7.14845C20.4785 7.14845 19.8516 6.5215 19.8516 5.74513C19.8516 4.96877 20.4785 4.34181 21.2549 4.34181C22.0313 4.34181 22.6582 4.96877 22.6582 5.74513C22.6585 5.92948 22.6223 6.11207 22.5519 6.28243C22.4814 6.4528 22.3781 6.60759 22.2477 6.73795C22.1174 6.8683 21.9626 6.97166 21.7922 7.0421C21.6218 7.11255 21.4392 7.14868 21.2549 7.14845Z" fill="#14191C"/>
</g>
<defs>
<filter id="filter0_d" x="-0.707886" y="0.289185" width="31.4221" height="31.4217" filterUnits="userSpaceOnUse" color-interpolation-filters="sRGB">
<feFlood flood-opacity="0" result="BackgroundImageFix"/>
<feColorMatrix in="SourceAlpha" type="matrix" values="0 0 0 0 0 0 0 0 0 0 0 0 0 0 0 0 0 0 127 0"/>
<feOffset dy="4"/>
<feGaussianBlur stdDeviation="2"/>
<feColorMatrix type="matrix" values="0 0 0 0 0 0 0 0 0 0 0 0 0 0 0 0 0 0 0.25 0"/>
<feBlend mode="normal" in2="BackgroundImageFix" result="effect1_dropShadow"/>
<feBlend mode="normal" in="SourceGraphic" in2="effect1_dropShadow" result="shape"/>
</filter>
</defs>
</svg>
