<svg width="24" height="24" viewBox="0 0 24 24" fill="none" xmlns="http://www.w3.org/2000/svg">
<path d="M12 8.09462C9.84962 8.09462 8.09474 9.8495 8.09474 11.9999C8.09474 14.1503 9.84962 15.9052 12 15.9052C14.1504 15.9052 15.9053 14.1503 15.9053 11.9999C15.9053 9.8495 14.1504 8.09462 12 8.09462ZM23.7129 11.9999C23.7129 10.3827 23.7276 8.78017 23.6367 7.16591C23.5459 5.29091 23.1182 3.62685 21.7471 2.25575C20.3731 0.88173 18.7119 0.456926 16.8369 0.366106C15.2197 0.275285 13.6172 0.289934 12.0029 0.289934C10.3858 0.289934 8.78322 0.275285 7.16896 0.366106C5.29396 0.456926 3.6299 0.88466 2.25881 2.25575C0.884782 3.62978 0.459978 5.29091 0.369157 7.16591C0.278337 8.7831 0.292986 10.3856 0.292986 11.9999C0.292986 13.6142 0.278337 15.2196 0.369157 16.8339C0.459978 18.7089 0.887712 20.3729 2.25881 21.744C3.63283 23.1181 5.29396 23.5429 7.16896 23.6337C8.78615 23.7245 10.3887 23.7099 12.0029 23.7099C13.6201 23.7099 15.2227 23.7245 16.8369 23.6337C18.7119 23.5429 20.376 23.1151 21.7471 21.744C23.1211 20.37 23.5459 18.7089 23.6367 16.8339C23.7305 15.2196 23.7129 13.6171 23.7129 11.9999ZM12 18.0087C8.67482 18.0087 5.99123 15.3251 5.99123 11.9999C5.99123 8.6747 8.67482 5.9911 12 5.9911C15.3252 5.9911 18.0088 8.6747 18.0088 11.9999C18.0088 15.3251 15.3252 18.0087 12 18.0087ZM18.2549 7.14833C17.4785 7.14833 16.8516 6.52138 16.8516 5.74501C16.8516 4.96864 17.4785 4.34169 18.2549 4.34169C19.0313 4.34169 19.6582 4.96864 19.6582 5.74501C19.6585 5.92936 19.6223 6.11195 19.5519 6.28231C19.4814 6.45268 19.3781 6.60747 19.2477 6.73782C19.1174 6.86818 18.9626 6.97154 18.7922 7.04198C18.6218 7.11242 18.4392 7.14856 18.2549 7.14833Z" fill="white"/>
</svg>
