<svg width="30" height="30" viewBox="0 0 30 30" fill="none" xmlns="http://www.w3.org/2000/svg">
<path fill-rule="evenodd" clip-rule="evenodd" d="M14.7415 23.8994H16.4392C16.4392 23.8994 16.9485 23.8148 17.2031 23.5611C17.4578 23.3074 17.4577 22.8 17.4577 22.8C17.4577 22.8 17.4578 20.6011 18.4763 20.2628C19.4949 19.9246 20.853 22.4617 22.2112 23.392C23.2298 24.1531 23.9937 23.984 23.9937 23.984L27.7285 23.8994C27.7285 23.8994 29.6808 23.8148 28.7471 22.208C28.6622 22.1234 28.2378 21.1086 25.946 18.9943C23.5693 16.7954 23.9088 17.2183 26.7099 13.4126C28.4076 11.1291 29.0866 9.776 28.9169 9.09943C28.7471 8.50743 27.4739 8.67657 27.4739 8.67657H23.2297C23.2297 8.67657 22.8902 8.592 22.7205 8.76114C22.4658 8.93028 22.3809 9.184 22.3809 9.184C22.3809 9.184 21.7019 10.96 20.853 12.4823C18.9856 15.6114 18.2217 15.7806 17.967 15.6114C17.288 15.1886 17.4577 13.7509 17.4577 12.8206C17.4577 9.776 17.967 8.50743 16.524 8.16914C16.0996 8.08457 15.7601 8 14.5717 8C13.0439 8 11.7706 8 11.0916 8.33829C10.5823 8.592 10.2427 9.09943 10.4974 9.09943C10.752 9.09943 11.4311 9.26857 11.7706 9.69143C12.1102 10.4526 12.1102 11.7211 12.1102 11.7211C12.1102 11.7211 12.3648 15.3577 11.516 15.7806C10.9218 16.1188 10.1579 15.4423 8.46022 12.5669C7.61139 11.1291 6.93233 9.43771 6.93233 9.43771C6.93233 9.43771 6.84745 9.09943 6.59281 8.93029C6.33816 8.76114 5.91375 8.67657 5.91375 8.67657H1.92427C1.92427 8.67657 1.3301 8.67657 1.07545 8.93029C0.905686 9.184 1.07545 9.60686 1.07545 9.60686C1.07545 9.60686 4.2161 16.88 7.78116 20.6011C11.0916 24.1531 14.7415 23.8994 14.7415 23.8994Z" fill="white"/>
</svg>
