<svg width="30" height="30" viewBox="0 0 30 30" fill="none" xmlns="http://www.w3.org/2000/svg">
<path d="M14.7456 0.922852C9.35509 0.922852 4.96948 5.30846 4.96948 10.699C4.96948 17.4743 14.7552 29.0478 14.7552 29.0478C14.7552 29.0478 24.5217 17.1411 24.5217 10.699C24.5217 5.30846 20.1363 0.922852 14.7456 0.922852ZM17.6953 13.5614C16.8819 14.3746 15.8138 14.7812 14.7456 14.7812C13.6775 14.7812 12.6091 14.3746 11.7961 13.5614C10.1696 11.9351 10.1696 9.28877 11.7961 7.66228C12.5837 6.87435 13.6313 6.44039 14.7456 6.44039C15.8599 6.44039 16.9073 6.87452 17.6953 7.66228C19.3217 9.28877 19.3217 11.9351 17.6953 13.5614Z" fill="white"/>
</svg>
